2.2Hzhigh3min_grf.mot
version=1
nRows=15
nColumns 19
inDegrees=yes
endheader
time	1_ground_force_vx	1_ground_force_vy	1_ground_force_vz	1_ground_force_px	1_ground_force_py	1_ground_force_pz	1_ground_torque_x	1_ground_torque_y	1_ground_torque_z	2_ground_force_vx	2_ground_force_vy	2_ground_force_vz	2_ground_force_px	2_ground_force_py	2_ground_force_pz	2_ground_torque_x	2_ground_torque_y	2_ground_torque_z
            2.502500	            0.366271	            0.721723	           -0.135386	           -0.233013	            0.005581	           -0.255695	           -0.032110	            0.037131	            0.015851	            0.375669	           -0.184469	            0.468465	           -0.232311	            0.006130	           -0.833667	           -0.150299	           -0.000408	           -0.037636
            2.503000	            0.091099	            0.721867	           -0.180559	           -0.233013	            0.005581	           -0.255695	            0.138680	           -0.009020	           -0.034095	            0.283237	           -0.552602	            0.326406	           -0.232311	            0.006130	           -0.833667	           -0.075192	            0.009316	           -0.037635
            2.503500	            0.091114	            1.262467	           -0.132385	           -0.233013	            0.005581	           -0.255695	            0.023795	           -0.027608	           -0.015111	            0.046891	           -0.000166	            0.093836	           -0.232311	            0.006130	           -0.833667	           -0.131658	            0.028354	           -0.131794
            2.504000	            0.136633	            0.542200	           -0.319014	           -0.233013	            0.005581	           -0.255695	            0.013210	            0.018783	           -0.050502	            0.140776	           -0.001334	            0.516149	           -0.232311	            0.006130	           -0.833667	           -0.094250	            0.084870	           -0.037357
            2.504500	            0.045289	            0.541592	           -0.181219	           -0.233013	            0.005581	           -0.255695	           -0.011202	            0.009095	            0.039599	            0.188188	           -0.184476	            0.280832	           -0.232311	            0.006130	           -0.833667	           -0.112984	            0.066031	           -0.075117
            2.505000	            0.228646	            0.001027	           -0.229848	           -0.233013	            0.005581	           -0.255695	            0.028619	            0.000022	            0.028501	            0.377622	           -0.736579	            0.372637	           -0.232311	            0.006130	           -0.833667	           -0.075097	           -0.028159	           -0.132021
            2.505500	            0.182689	            0.001215	           -0.275591	           -0.233013	            0.005581	           -0.255695	           -0.007021	            0.000073	            0.007837	            0.281908	           -0.184305	            0.327720	           -0.232311	            0.006130	           -0.833667	           -0.131531	           -0.000206	           -0.075345
            2.506000	            0.319730	            0.182294	           -0.458583	           -0.233013	            0.005581	           -0.255695	            0.000650	            0.009455	           -0.005082	            0.370935	            1.105239	            0.285352	           -0.232311	            0.006130	           -0.833667	           -0.018802	            0.000067	           -0.037692
            2.506500	            0.136750	           -0.719463	           -0.370280	           -0.233013	            0.005581	           -0.255695	            0.072438	           -0.009179	            0.005671	            0.140152	            0.182480	            0.610663	           -0.232311	            0.006130	           -0.833667	           -0.150502	            0.037940	           -0.188303
            2.507000	            0.229119	           -0.720625	           -0.095373	           -0.233013	            0.005581	           -0.255695	            0.060664	            0.018681	           -0.009069	            0.282634	           -0.368955	            0.467847	           -0.232311	            0.006130	           -0.833667	           -0.037944	            0.085476	           -0.150482
            2.507500	            0.091344	            0.000608	           -0.137795	           -0.233013	            0.005581	           -0.255695	            0.024553	            0.009447	           -0.033707	            0.188167	           -0.184309	            0.233904	           -0.232311	            0.006130	           -0.833667	           -0.056431	            0.009585	           -0.094193
            2.508000	            0.045112	           -0.359146	           -0.322651	           -0.233013	            0.005581	           -0.255695	            0.051419	            0.009344	           -0.016918	            0.281305	           -0.000659	            0.469161	           -0.232311	            0.006130	           -0.833667	           -0.075302	            0.028557	           -0.131818
            2.508500	            0.412392	           -0.179793	           -0.093509	           -0.233013	            0.005581	           -0.255695	            0.041626	           -0.064509	            0.017219	            0.233002	            0.368473	            0.188927	           -0.232311	            0.006130	           -0.833667	           -0.093987	            0.018499	            0.018958
            2.509000	            0.321177	            0.360004	            0.138317	           -0.233013	            0.005581	           -0.255695	           -0.081202	            0.018704	           -0.004846	            0.376355	           -0.368784	            0.514736	           -0.232311	            0.006130	           -0.833667	           -0.075116	           -0.009657	           -0.018852
            2.509500	            0.137056	            0.721679	           -0.134817	           -0.233013	            0.005581	           -0.255695	            0.042918	           -0.018339	           -0.013145	            0.235017	           -0.184139	            0.233884	           -0.232311	            0.006130	           -0.833667	            0.018836	           -0.009519	            0.037659
